<?xml version="1.0" encoding="UTF-8"?>
<!DOCTYPE svg PUBLIC "-//W3C//DTD SVG 1.1//EN" "http://www.w3.org/Graphics/SVG/1.1/DTD/svg11.dtd">
<!-- Creator: CorelDRAW X6 -->
<svg xmlns="http://www.w3.org/2000/svg" xml:space="preserve" width="97mm" height="25mm" version="1.1" style="shape-rendering:geometricPrecision; text-rendering:geometricPrecision; image-rendering:optimizeQuality; fill-rule:evenodd; clip-rule:evenodd"
viewBox="0 0 9700 2500"
 xmlns:xlink="http://www.w3.org/1999/xlink">
 <defs>
  <style type="text/css">
   <![CDATA[
    .fil0 {fill:#C68625;fill-rule:nonzero}
   ]]>
  </style>
 </defs>
 <g id="Слой_x0020_1">
  <metadata id="CorelCorpID_0Corel-Layer"/>
  <g id="_625443680">
   <path class="fil0" d="M1054 814c5,0 11,-4 11,-12l0 -37c0,-268 0,-317 -4,-374 -4,-60 -18,-88 -76,-101 -14,-4 -44,-5 -69,-5 -19,0 -30,-4 -30,-16 0,-12 12,-16 37,-16 95,0 206,5 254,5 42,0 154,-5 222,-5 25,0 37,4 37,16 0,12 -11,16 -32,16 -14,0 -30,2 -51,5 -48,9 -62,39 -65,101 -4,56 -4,106 -4,374l0 310c0,162 0,302 9,377 5,49 16,88 69,95 25,4 64,7 90,7 19,0 28,5 28,14 0,12 -14,18 -35,18 -115,0 -226,-5 -275,-5 -41,0 -152,5 -220,5 -25,0 -37,-5 -37,-18 0,-9 7,-14 28,-14 26,0 48,-4 63,-7 35,-7 44,-46 51,-97 9,-74 9,-213 9,-376l0 -155c0,-7 -5,-11 -11,-11l-674 0c-5,0 -11,2 -11,11l0 155c0,162 0,302 9,377 5,49 16,88 69,95 25,4 64,7 90,7 19,0 28,5 28,14 0,12 -14,18 -35,18 -115,0 -226,-5 -275,-5 -41,0 -152,5 -222,5 -23,0 -35,-5 -35,-18 0,-9 7,-14 28,-14 26,0 48,-4 64,-7 35,-7 44,-46 51,-97 9,-74 9,-213 9,-376l0 -310c0,-268 0,-317 -4,-374 -4,-60 -18,-88 -76,-101 -14,-4 -44,-5 -69,-5 -19,0 -30,-4 -30,-16 0,-12 12,-16 37,-16 95,0 206,5 254,5 42,0 153,-5 222,-5 25,0 37,4 37,16 0,12 -11,16 -32,16 -14,0 -30,2 -51,5 -48,9 -62,39 -65,101 -4,56 -4,106 -4,374l0 37c0,9 5,12 11,12l674 0zm943 -49l0 0c0,-268 0,-317 -4,-374 -4,-60 -21,-90 -60,-99 -19,-5 -42,-7 -64,-7 -18,0 -28,-4 -28,-18 0,-11 14,-14 42,-14 67,0 178,5 229,5 44,0 148,-5 215,-5 23,0 37,4 37,14 0,14 -11,18 -28,18 -18,0 -32,2 -53,5 -48,9 -62,39 -65,101 -4,56 -4,106 -4,374l0 310c0,171 0,310 7,386 5,48 18,79 71,86 25,4 63,7 90,7 19,0 28,5 28,14 0,12 -14,18 -34,18 -116,0 -228,-5 -275,-5 -41,0 -152,5 -222,5 -23,0 -35,-5 -35,-18 0,-9 7,-14 28,-14 26,0 48,-4 63,-7 35,-7 46,-37 51,-88 9,-74 9,-213 9,-385l0 -310zm818 801l0 0c-28,-12 -33,-21 -33,-60 0,-97 7,-203 9,-231 2,-26 7,-46 21,-46 16,0 18,16 18,30 0,23 7,60 16,90 39,131 143,178 252,178 159,0 236,-108 236,-201 0,-86 -26,-168 -173,-282l-81 -64c-194,-152 -261,-275 -261,-418 0,-194 162,-333 407,-333 115,0 189,18 235,30 16,4 25,9 25,21 0,23 -7,74 -7,212 0,39 -5,53 -19,53 -12,0 -18,-11 -18,-32 0,-16 -9,-71 -46,-116 -26,-34 -78,-86 -192,-86 -131,0 -210,76 -210,182 0,81 41,143 187,254l49 37c213,161 289,282 289,450 0,102 -39,224 -166,307 -88,56 -187,72 -281,72 -102,0 -182,-12 -258,-46zm1508 -1214l0 0 -263 7c-102,4 -145,12 -171,51 -18,26 -26,48 -30,62 -4,14 -9,21 -19,21 -12,0 -16,-9 -16,-28 0,-28 34,-189 37,-203 5,-23 11,-34 21,-34 14,0 32,18 76,21 51,5 118,9 176,9l699 0c56,0 95,-5 122,-9 26,-5 41,-9 48,-9 12,0 14,11 14,37 0,37 -5,159 -5,205 -2,18 -5,28 -16,28 -14,0 -18,-9 -19,-35l-2 -19c-4,-46 -51,-95 -208,-99l-222 -5 0 723c0,162 0,302 9,377 5,49 16,88 69,95 25,4 64,7 90,7 19,0 28,5 28,14 0,12 -14,18 -34,18 -116,0 -228,-5 -277,-5 -41,0 -152,5 -222,5 -23,0 -35,-5 -35,-18 0,-9 7,-14 28,-14 26,0 48,-4 64,-7 35,-7 46,-46 51,-97 9,-74 9,-213 9,-376l0 -723zm945 568l0 0c0,-302 199,-692 729,-692 439,0 713,256 713,660 0,404 -282,723 -730,723 -506,0 -711,-379 -711,-691zm1194 34l0 0c0,-395 -228,-640 -517,-640 -203,0 -434,113 -434,552 0,367 203,658 542,658 124,0 409,-60 409,-570zm717 -189l0 0c0,-268 0,-317 -4,-374 -4,-60 -18,-88 -76,-101 -14,-4 -44,-5 -69,-5 -19,0 -30,-4 -30,-16 0,-12 12,-16 39,-16 93,0 205,5 242,5 60,0 194,-5 249,-5 111,0 229,11 325,76 49,34 120,123 120,242 0,131 -55,250 -233,395 157,198 279,355 383,464 99,102 171,115 198,120 19,4 35,5 49,5 14,0 21,5 21,14 0,14 -12,18 -34,18l-168 0c-99,0 -143,-9 -189,-34 -76,-41 -143,-123 -242,-259 -71,-97 -152,-217 -175,-243 -9,-11 -19,-12 -32,-12l-153 -4c-9,0 -14,4 -14,14l0 25c0,164 0,303 9,377 5,51 16,90 69,97 27,4 65,7 86,7 14,0 21,5 21,14 0,12 -12,18 -35,18 -102,0 -233,-5 -259,-5 -34,0 -145,5 -215,5 -23,0 -35,-5 -35,-18 0,-9 7,-14 28,-14 26,0 48,-4 63,-7 35,-7 44,-46 51,-97 9,-74 9,-213 9,-376l0 -310zm208 139l0 0c0,19 4,26 16,32 37,12 90,18 134,18 71,0 93,-7 125,-30 53,-39 104,-120 104,-265 0,-250 -166,-323 -270,-323 -44,0 -76,2 -94,7 -12,4 -16,11 -16,25l0 536zm1488 226l0 0c0,-95 -18,-134 -41,-185 -12,-28 -249,-416 -310,-508 -44,-65 -88,-109 -122,-129 -23,-12 -53,-23 -74,-23 -14,0 -26,-4 -26,-16 0,-11 12,-16 34,-16 32,0 164,5 222,5 37,0 109,-5 189,-5 18,0 26,5 26,16 0,11 -12,12 -39,19 -16,4 -25,18 -25,32 0,14 9,35 21,60 25,53 272,478 300,527 18,-42 240,-430 265,-485 18,-39 25,-69 25,-92 0,-18 -7,-37 -37,-44 -16,-4 -32,-7 -32,-18 0,-12 9,-16 30,-16 58,0 115,5 166,5 39,0 155,-5 189,-5 19,0 32,4 32,14 0,12 -14,18 -33,18 -18,0 -51,7 -78,21 -37,18 -56,39 -95,86 -58,71 -305,485 -337,561 -26,64 -26,118 -26,176l0 145c0,28 0,102 5,176 4,51 19,90 72,97 25,4 64,7 88,7 19,0 28,5 28,14 0,12 -14,18 -37,18 -111,0 -222,-5 -270,-5 -44,0 -155,5 -220,5 -25,0 -39,-4 -39,-18 0,-9 9,-14 28,-14 25,0 46,-4 62,-7 35,-7 51,-46 55,-97 5,-74 5,-148 5,-176l0 -145z"/>
  </g>
  <g id="_625444224">
   <path class="fil0" d="M321 2112c0,2 0,3 -1,4 -1,1 -2,2 -4,3 -2,1 -4,1 -7,2 -3,0 -7,1 -12,1 -5,0 -10,0 -13,-1 -3,0 -6,-1 -8,-2 -2,-1 -3,-2 -4,-3 -1,-1 -2,-3 -2,-5l-33 -87c-4,-12 -9,-22 -15,-30 -5,-8 -11,-15 -18,-21 -7,-5 -15,-9 -24,-12 -9,-3 -19,-4 -30,-4l-20 0 0 156c0,2 0,3 -1,4 -1,1 -2,2 -4,3 -2,1 -4,1 -7,2 -3,0 -7,1 -11,1 -4,0 -8,0 -11,-1 -3,0 -6,-1 -7,-2 -2,-1 -3,-2 -4,-3 -1,-1 -1,-2 -1,-4l0 -343c0,-1 0,-3 1,-4 1,-1 2,-2 4,-3 2,-1 4,-1 7,-2 3,0 7,-1 11,-1 5,0 8,0 11,1 3,0 5,1 7,2 2,1 3,2 4,3 1,1 1,2 1,4l0 146 20 0c11,0 21,-1 29,-4 8,-3 16,-7 22,-12 6,-5 12,-12 17,-20 5,-8 9,-18 13,-29l27 -78c1,-2 1,-3 2,-5 1,-2 2,-3 4,-4 2,-1 4,-2 8,-2 3,0 7,-1 13,-1 5,0 9,0 11,1 3,0 5,1 7,2 2,1 3,2 3,3 1,1 1,2 1,4 0,2 0,4 -1,7 -1,2 -2,5 -3,9l-28 74c-4,11 -8,21 -13,29 -4,8 -9,15 -14,21 -5,6 -11,11 -17,14 -6,4 -13,7 -20,9l0 1c9,3 16,7 23,11 7,4 13,9 19,15 6,6 11,13 16,22 5,9 9,19 14,31l34 85c2,5 3,8 3,10 0,2 1,4 1,5zm354 -175c0,29 -3,55 -10,78 -7,23 -17,43 -30,59 -14,16 -30,29 -51,37 -20,9 -44,13 -71,13 -27,0 -50,-4 -70,-12 -20,-8 -36,-20 -49,-35 -13,-15 -22,-34 -29,-57 -6,-23 -9,-49 -9,-78 0,-28 3,-54 10,-77 7,-23 17,-42 31,-59 14,-16 31,-28 51,-37 20,-9 44,-13 71,-13 26,0 49,4 69,12 19,8 36,19 49,35 13,15 23,34 29,56 6,22 10,48 10,77zm-50 3c0,-20 -2,-39 -5,-56 -4,-17 -10,-32 -18,-45 -8,-13 -19,-23 -33,-30 -14,-7 -31,-11 -52,-11 -21,0 -38,4 -52,12 -14,8 -25,18 -34,31 -9,13 -15,28 -19,45 -4,17 -6,35 -6,54 0,21 2,40 5,58 3,18 9,33 18,46 8,13 19,23 33,30 14,7 31,11 52,11 21,0 38,-4 52,-12 14,-8 26,-18 34,-31 9,-13 15,-28 18,-46 4,-17 5,-35 5,-55zm361 172c0,2 0,3 -1,4 -1,1 -2,2 -4,3 -2,1 -4,1 -7,2 -3,0 -7,1 -11,1 -5,0 -8,0 -11,-1 -3,0 -5,-1 -7,-2 -2,-1 -3,-2 -4,-3 -1,-1 -1,-2 -1,-4l0 -309 -100 0c-5,43 -10,80 -15,112 -5,32 -10,60 -16,84 -5,24 -12,44 -18,59 -7,16 -14,29 -23,38 -9,10 -18,16 -29,20 -11,4 -23,6 -37,6 -2,0 -3,0 -5,-1 -1,-1 -3,-2 -4,-4 -1,-2 -2,-4 -2,-6 0,-3 -1,-6 -1,-9 0,-5 0,-8 1,-11 0,-3 1,-5 2,-7 1,-2 2,-3 3,-4 1,-1 3,-1 4,-1 7,0 13,-1 19,-4 6,-3 12,-8 17,-16 6,-8 11,-18 16,-32 5,-14 10,-32 15,-54 5,-22 10,-49 14,-80 5,-31 9,-68 13,-111 1,-8 3,-13 6,-16 3,-3 7,-5 12,-5l158 0c5,0 9,2 12,5 3,3 4,8 4,14l0 331zm367 0c0,2 0,3 -1,4 -1,1 -2,2 -4,3 -2,1 -4,1 -7,2 -3,0 -7,1 -11,1 -5,0 -8,0 -11,-1 -3,0 -5,-1 -7,-2 -2,-1 -3,-2 -4,-3 -1,-1 -1,-2 -1,-4l0 -309 -100 0c-5,43 -10,80 -15,112 -5,32 -10,60 -16,84 -5,24 -12,44 -18,59 -7,16 -14,29 -23,38 -9,10 -18,16 -29,20 -11,4 -23,6 -37,6 -2,0 -3,0 -5,-1 -1,-1 -3,-2 -4,-4 -1,-2 -2,-4 -2,-6 0,-3 -1,-6 -1,-9 0,-5 0,-8 1,-11 0,-3 1,-5 2,-7 1,-2 2,-3 3,-4 1,-1 3,-1 4,-1 7,0 13,-1 19,-4 6,-3 12,-8 17,-16 6,-8 11,-18 16,-32 5,-14 10,-32 15,-54 5,-22 10,-49 14,-80 5,-31 9,-68 13,-111 1,-8 3,-13 6,-16 3,-3 7,-5 12,-5l158 0c5,0 9,2 12,5 3,3 4,8 4,14l0 331zm316 -13c0,3 0,6 -1,9 0,2 -1,5 -2,6 -1,2 -2,3 -3,4 -1,1 -3,1 -4,1l-171 0c-4,0 -8,-1 -12,-4 -4,-3 -6,-8 -6,-15l0 -318c0,-7 2,-12 6,-15 4,-3 8,-4 12,-4l169 0c2,0 3,0 4,1 1,1 2,2 3,4 1,2 1,4 2,6 0,2 1,6 1,9 0,3 0,6 -1,9 0,2 -1,5 -2,6 -1,2 -2,3 -3,3 -1,1 -3,1 -4,1l-140 0 0 112 120 0c2,0 3,0 4,1 1,1 2,2 3,3 1,2 1,3 2,6 0,3 1,6 1,9 0,3 0,6 -1,9 0,2 -1,4 -2,6 -1,2 -2,3 -3,3 -1,1 -3,1 -4,1l-120 0 0 128 142 0c2,0 3,0 4,1 1,1 2,2 3,3 1,2 2,4 2,6 0,2 1,6 1,9zm336 12c0,2 0,3 -1,4 -1,1 -2,2 -4,3 -2,1 -4,1 -7,2 -3,0 -7,1 -12,1 -5,0 -10,0 -13,-1 -3,0 -6,-1 -8,-2 -2,-1 -3,-2 -4,-3 -1,-1 -2,-3 -2,-5l-33 -87c-4,-12 -9,-22 -15,-30 -5,-8 -11,-15 -18,-21 -7,-5 -15,-9 -24,-12 -9,-3 -19,-4 -30,-4l-20 0 0 156c0,2 0,3 -1,4 -1,1 -2,2 -4,3 -2,1 -4,1 -7,2 -3,0 -7,1 -11,1 -4,0 -8,0 -11,-1 -3,0 -6,-1 -7,-2 -2,-1 -3,-2 -4,-3 -1,-1 -1,-2 -1,-4l0 -343c0,-1 0,-3 1,-4 1,-1 2,-2 4,-3 2,-1 4,-1 7,-2 3,0 7,-1 11,-1 5,0 8,0 11,1 3,0 5,1 7,2 2,1 3,2 4,3 1,1 1,2 1,4l0 146 20 0c11,0 21,-1 29,-4 8,-3 16,-7 22,-12 6,-5 12,-12 17,-20 5,-8 9,-18 13,-29l27 -78c1,-2 1,-3 2,-5 1,-2 2,-3 4,-4 2,-1 4,-2 8,-2 3,0 7,-1 13,-1 5,0 9,0 11,1 3,0 5,1 7,2 2,1 3,2 3,3 1,1 1,2 1,4 0,2 0,4 -1,7 -1,2 -2,5 -3,9l-28 74c-4,11 -8,21 -13,29 -4,8 -9,15 -14,21 -5,6 -11,11 -17,14 -6,4 -13,7 -20,9l0 1c9,3 16,7 23,11 7,4 13,9 19,15 6,6 11,13 16,22 5,9 9,19 14,31l34 85c2,5 3,8 3,10 0,2 1,4 1,5zm392 94c0,2 0,3 -1,4 -1,1 -2,2 -3,2 -1,0 -3,1 -6,1 -3,0 -6,1 -10,1 -4,0 -7,0 -9,-1 -3,0 -5,-1 -6,-1 -2,-1 -3,-1 -3,-2 -1,-1 -1,-2 -1,-4l0 -87 -243 0c-5,0 -9,-2 -12,-5 -3,-3 -5,-8 -5,-14l0 -331c0,-1 0,-3 1,-4 1,-1 2,-2 4,-3 2,-1 4,-1 7,-2 3,0 7,-1 11,-1 5,0 8,0 11,1 3,0 5,1 7,2 2,1 3,2 4,3 1,1 1,2 1,4l0 309 160 0 0 -309c0,-1 0,-2 1,-4 1,-1 2,-2 4,-3 2,-1 4,-1 7,-2 3,0 7,-1 11,-1 4,0 8,0 11,1 3,0 5,1 7,2 2,1 3,2 4,3 1,1 1,2 1,4l0 309 36 0c4,0 6,1 8,3 2,2 2,5 2,10l0 114zm349 -93c0,2 0,3 -1,4 -1,1 -2,2 -4,3 -2,1 -4,1 -7,2 -3,0 -7,1 -11,1 -5,0 -8,0 -11,-1 -3,0 -6,-1 -7,-2 -2,-1 -3,-2 -4,-3 -1,-1 -1,-2 -1,-4l0 -234c0,-6 0,-12 0,-18 0,-6 0,-12 1,-17l-1 0c-2,3 -3,5 -5,8 -2,3 -4,6 -6,9 -2,3 -4,6 -6,10 -2,3 -4,6 -6,10l-154 232c-1,2 -2,3 -3,4 -1,1 -3,2 -4,3 -2,1 -4,1 -6,1 -2,0 -5,0 -9,0 -4,0 -8,0 -10,-1 -3,0 -5,-1 -6,-2 -2,-1 -3,-2 -3,-3 -1,-1 -1,-2 -1,-4l0 -342c0,-1 0,-3 1,-4 1,-1 2,-2 4,-3 2,-1 4,-1 7,-2 3,0 7,-1 11,-1 5,0 8,0 11,1 3,0 5,1 7,2 2,1 3,2 4,3 1,1 1,2 1,4l0 235c0,5 0,10 0,16 0,6 0,11 -1,17l1 0c3,-5 6,-10 10,-17 4,-7 8,-13 13,-19l154 -232c1,-1 2,-2 3,-3 1,-1 3,-2 4,-2 2,-1 4,-1 6,-2 2,0 5,-1 9,-1 4,0 8,0 10,1 3,0 5,1 6,2 2,1 3,2 3,3 1,1 1,2 1,4l0 342zm336 0c0,2 0,3 -1,4 -1,1 -2,2 -4,3 -2,1 -4,1 -7,2 -3,0 -7,1 -11,1 -5,0 -8,0 -11,-1 -3,0 -5,-1 -7,-2 -2,-1 -3,-2 -4,-3 -1,-1 -1,-2 -1,-4l0 -149 -36 0c-14,0 -25,2 -33,4 -8,3 -14,7 -20,13 -6,6 -10,12 -14,20 -4,8 -8,17 -11,26l-31 82c-1,2 -2,4 -3,5 -1,2 -2,3 -5,3 -2,1 -5,1 -8,2 -3,0 -7,1 -12,1 -5,0 -10,0 -13,-1 -3,0 -6,-1 -7,-2 -2,-1 -3,-2 -3,-3 -1,-1 -1,-2 -1,-4 0,-2 0,-4 1,-6 1,-2 2,-6 4,-12l29 -76c3,-9 7,-17 11,-25 4,-7 8,-14 12,-19 4,-6 9,-10 14,-14 5,-4 11,-7 17,-10 -11,-3 -21,-7 -30,-11 -9,-5 -16,-11 -22,-18 -6,-7 -11,-16 -14,-25 -3,-9 -5,-20 -5,-31 0,-15 2,-28 7,-41 5,-12 13,-23 23,-32 10,-9 23,-16 38,-21 15,-5 37,-8 65,-8l74 0c4,0 8,1 12,4 4,3 6,8 6,15l0 331zm-47 -311l-45 0c-19,0 -33,2 -43,5 -10,3 -17,7 -23,13 -6,5 -10,12 -13,19 -3,7 -4,15 -4,24 0,9 1,17 4,24 3,8 7,14 13,20 6,6 14,10 24,13 10,3 23,5 40,5l47 0 0 -123zm528 310c0,2 0,3 -1,4 -1,1 -2,2 -4,3 -2,1 -4,1 -7,2 -3,0 -7,1 -12,1 -5,0 -10,0 -13,-1 -3,0 -6,-1 -8,-2 -2,-1 -3,-2 -4,-3 -1,-1 -2,-3 -2,-5l-33 -87c-4,-12 -9,-22 -15,-30 -5,-8 -11,-15 -18,-21 -7,-5 -15,-9 -24,-12 -9,-3 -19,-4 -30,-4l-20 0 0 156c0,2 0,3 -1,4 -1,1 -2,2 -4,3 -2,1 -4,1 -7,2 -3,0 -7,1 -11,1 -4,0 -8,0 -11,-1 -3,0 -6,-1 -7,-2 -2,-1 -3,-2 -4,-3 -1,-1 -1,-2 -1,-4l0 -343c0,-1 0,-3 1,-4 1,-1 2,-2 4,-3 2,-1 4,-1 7,-2 3,0 7,-1 11,-1 5,0 8,0 11,1 3,0 5,1 7,2 2,1 3,2 4,3 1,1 1,2 1,4l0 146 20 0c11,0 21,-1 29,-4 8,-3 16,-7 22,-12 6,-5 12,-12 17,-20 5,-8 9,-18 13,-29l27 -78c1,-2 1,-3 2,-5 1,-2 2,-3 4,-4 2,-1 4,-2 8,-2 3,0 7,-1 13,-1 5,0 9,0 11,1 3,0 5,1 7,2 2,1 3,2 3,3 1,1 1,2 1,4 0,2 0,4 -1,7 -1,2 -2,5 -3,9l-28 74c-4,11 -8,21 -13,29 -4,8 -9,15 -14,21 -5,6 -11,11 -17,14 -6,4 -13,7 -20,9l0 1c9,3 16,7 23,11 7,4 13,9 19,15 6,6 11,13 16,22 5,9 9,19 14,31l34 85c2,5 3,8 3,10 0,2 1,4 1,5zm341 1c0,2 0,3 -1,4 -1,1 -2,2 -4,3 -2,1 -4,1 -7,2 -3,0 -7,1 -11,1 -5,0 -8,0 -11,-1 -3,0 -5,-1 -7,-2 -2,-1 -3,-2 -4,-3 -1,-1 -1,-2 -1,-4l0 -309 -100 0c-5,43 -10,80 -15,112 -5,32 -10,60 -16,84 -5,24 -12,44 -18,59 -7,16 -14,29 -23,38 -9,10 -18,16 -29,20 -11,4 -23,6 -37,6 -2,0 -3,0 -5,-1 -1,-1 -3,-2 -4,-4 -1,-2 -2,-4 -2,-6 0,-3 -1,-6 -1,-9 0,-5 0,-8 1,-11 0,-3 1,-5 2,-7 1,-2 2,-3 3,-4 1,-1 3,-1 4,-1 7,0 13,-1 19,-4 6,-3 12,-8 17,-16 6,-8 11,-18 16,-32 5,-14 10,-32 15,-54 5,-22 10,-49 14,-80 5,-31 9,-68 13,-111 1,-8 3,-13 6,-16 3,-3 7,-5 12,-5l158 0c5,0 9,2 12,5 3,3 4,8 4,14l0 331zm384 -10c1,4 2,7 2,10 0,2 -1,4 -2,6 -2,1 -4,2 -7,2 -3,0 -8,1 -14,1 -6,0 -10,0 -14,0 -3,0 -6,-1 -8,-1 -2,-1 -3,-2 -4,-3 -1,-1 -2,-2 -2,-4l-31 -87 -148 0 -29 86c-1,2 -1,3 -2,4 -1,1 -2,2 -4,3 -2,1 -4,1 -7,2 -3,0 -7,1 -13,1 -5,0 -10,0 -13,-1 -3,0 -6,-1 -7,-3 -1,-1 -2,-3 -2,-6 0,-3 1,-6 2,-10l120 -331c1,-2 2,-4 3,-5 1,-1 3,-2 5,-3 2,-1 5,-1 9,-2 4,0 8,0 14,0 6,0 11,0 15,0 4,0 7,1 9,2 2,1 4,2 6,3 1,1 2,3 3,5l120 332zm-154 -293l0 0 -61 178 124 0 -62 -178z"/>
   <path class="fil0" d="M4570 2070c0,3 0,5 0,8 0,2 0,4 -1,6 0,2 -1,3 -2,4 -1,1 -2,3 -4,5 -2,2 -6,5 -12,8 -6,4 -13,7 -22,11 -9,4 -19,7 -30,9 -11,3 -24,4 -37,4 -23,0 -44,-4 -63,-12 -19,-8 -35,-19 -48,-34 -13,-15 -23,-34 -30,-56 -7,-22 -11,-48 -11,-77 0,-30 4,-56 11,-79 8,-23 18,-43 32,-59 14,-16 30,-28 50,-37 19,-8 41,-13 64,-13 10,0 20,1 30,3 10,2 19,4 27,7 8,3 16,6 22,10 6,4 11,7 13,9 3,2 4,4 5,6 1,1 1,3 2,5 0,2 1,4 1,6 0,2 0,5 0,9 0,4 0,7 -1,9 0,3 -1,5 -2,7 -1,2 -2,3 -3,4 -1,1 -2,1 -4,1 -3,0 -6,-2 -11,-5 -5,-4 -11,-8 -18,-12 -7,-4 -16,-8 -27,-12 -11,-4 -23,-5 -38,-5 -16,0 -30,3 -43,10 -13,6 -24,16 -33,28 -9,12 -16,27 -22,45 -5,18 -8,38 -8,61 0,23 2,43 7,60 5,17 12,32 21,44 9,12 20,21 34,27 13,6 28,9 45,9 14,0 27,-2 37,-5 11,-3 20,-7 27,-12 8,-4 14,-8 18,-12 5,-3 9,-5 11,-5 1,0 2,0 3,1 1,1 2,2 2,3 1,2 1,4 1,6 0,3 0,6 0,10zm297 0c0,3 0,5 0,8 0,2 0,4 -1,6 0,2 -1,3 -2,4 -1,1 -2,3 -4,5 -2,2 -6,5 -12,8 -6,4 -13,7 -22,11 -9,4 -19,7 -30,9 -11,3 -24,4 -37,4 -23,0 -44,-4 -63,-12 -19,-8 -35,-19 -48,-34 -13,-15 -23,-34 -30,-56 -7,-22 -11,-48 -11,-77 0,-30 4,-56 11,-79 8,-23 18,-43 32,-59 14,-16 30,-28 50,-37 19,-8 41,-13 64,-13 10,0 20,1 30,3 10,2 19,4 27,7 8,3 16,6 22,10 6,4 11,7 13,9 3,2 4,4 5,6 1,1 1,3 2,5 0,2 1,4 1,6 0,2 0,5 0,9 0,4 0,7 -1,9 0,3 -1,5 -2,7 -1,2 -2,3 -3,4 -1,1 -2,1 -4,1 -3,0 -6,-2 -11,-5 -5,-4 -11,-8 -18,-12 -7,-4 -16,-8 -27,-12 -11,-4 -23,-5 -38,-5 -16,0 -30,3 -43,10 -13,6 -24,16 -33,28 -9,12 -16,27 -22,45 -5,18 -8,38 -8,61 0,23 2,43 7,60 5,17 12,32 21,44 9,12 20,21 34,27 13,6 28,9 45,9 14,0 27,-2 37,-5 11,-3 20,-7 27,-12 8,-4 14,-8 18,-12 5,-3 9,-5 11,-5 1,0 2,0 3,1 1,1 2,2 2,3 1,2 1,4 1,6 0,3 0,6 0,10zm352 43c0,2 0,3 -1,4 -1,1 -2,2 -4,3 -2,1 -4,1 -7,2 -3,0 -7,1 -11,1 -5,0 -8,0 -11,-1 -3,0 -6,-1 -7,-2 -2,-1 -3,-2 -4,-3 -1,-1 -1,-2 -1,-4l0 -234c0,-6 0,-12 0,-18 0,-6 0,-12 1,-17l-1 0c-2,3 -3,5 -5,8 -2,3 -4,6 -6,9 -2,3 -4,6 -6,10 -2,3 -4,6 -6,10l-154 232c-1,2 -2,3 -3,4 -1,1 -3,2 -4,3 -2,1 -4,1 -6,1 -2,0 -5,0 -9,0 -4,0 -8,0 -10,-1 -3,0 -5,-1 -6,-2 -2,-1 -3,-2 -3,-3 -1,-1 -1,-2 -1,-4l0 -342c0,-1 0,-3 1,-4 1,-1 2,-2 4,-3 2,-1 4,-1 7,-2 3,0 7,-1 11,-1 5,0 8,0 11,1 3,0 5,1 7,2 2,1 3,2 4,3 1,1 1,2 1,4l0 235c0,5 0,10 0,16 0,6 0,11 -1,17l1 0c3,-5 6,-10 10,-17 4,-7 8,-13 13,-19l154 -232c1,-1 2,-2 3,-3 1,-1 3,-2 4,-2 2,-1 4,-1 6,-2 2,0 5,-1 9,-1 4,0 8,0 10,1 3,0 5,1 6,2 2,1 3,2 3,3 1,1 1,2 1,4l0 342zm336 0c0,1 0,3 -1,4 -1,1 -2,2 -4,3 -2,1 -4,1 -7,2 -3,0 -7,1 -11,1 -4,0 -8,0 -11,-1 -3,0 -6,-1 -8,-2 -2,-1 -3,-2 -4,-3 -1,-1 -1,-2 -1,-4l0 -137c-11,1 -21,2 -31,3 -10,1 -20,1 -31,1 -18,0 -34,-1 -49,-4 -15,-3 -29,-8 -40,-16 -11,-8 -20,-19 -26,-33 -6,-14 -10,-33 -10,-55l0 -102c0,-1 0,-2 1,-4 1,-1 2,-2 4,-3 2,-1 4,-1 7,-2 3,0 7,-1 11,-1 5,0 8,0 11,1 3,0 5,1 8,2 2,1 3,2 4,3 1,1 1,2 1,4l0 98c0,11 1,21 4,30 2,9 7,16 13,23 6,6 14,11 25,14 10,3 24,5 40,5 10,0 20,0 30,-1 10,-1 19,-2 29,-2l0 -166c0,-1 0,-3 1,-4 1,-1 2,-2 4,-3 2,-1 5,-1 8,-2 3,0 7,-1 11,-1 5,0 8,0 11,1 3,0 5,1 7,2 2,1 3,2 4,3 1,1 1,2 1,4l0 343zm315 -13c0,3 0,6 -1,9 0,2 -1,5 -2,6 -1,2 -2,3 -3,4 -1,1 -3,1 -4,1l-171 0c-4,0 -8,-1 -12,-4 -4,-3 -6,-8 -6,-15l0 -318c0,-7 2,-12 6,-15 4,-3 8,-4 12,-4l169 0c2,0 3,0 4,1 1,1 2,2 3,4 1,2 1,4 2,6 0,2 1,6 1,9 0,3 0,6 -1,9 0,2 -1,5 -2,6 -1,2 -2,3 -3,3 -1,1 -3,1 -4,1l-140 0 0 112 120 0c2,0 3,0 4,1 1,1 2,2 3,3 1,2 1,3 2,6 0,3 1,6 1,9 0,3 0,6 -1,9 0,2 -1,4 -2,6 -1,2 -2,3 -3,3 -1,1 -3,1 -4,1l-120 0 0 128 142 0c2,0 3,0 4,1 1,1 2,2 3,3 1,2 2,4 2,6 0,2 1,6 1,9zm302 -31c0,3 0,5 0,8 0,2 0,4 -1,6 0,2 -1,3 -2,4 -1,1 -2,3 -4,5 -2,2 -6,5 -12,8 -6,4 -13,7 -22,11 -9,4 -19,7 -30,9 -11,3 -24,4 -37,4 -23,0 -44,-4 -63,-12 -19,-8 -35,-19 -48,-34 -13,-15 -23,-34 -30,-56 -7,-22 -11,-48 -11,-77 0,-30 4,-56 11,-79 8,-23 18,-43 32,-59 14,-16 30,-28 50,-37 19,-8 41,-13 64,-13 10,0 20,1 30,3 10,2 19,4 27,7 8,3 16,6 22,10 6,4 11,7 13,9 3,2 4,4 5,6 1,1 1,3 2,5 0,2 1,4 1,6 0,2 0,5 0,9 0,4 0,7 -1,9 0,3 -1,5 -2,7 -1,2 -2,3 -3,4 -1,1 -2,1 -4,1 -3,0 -6,-2 -11,-5 -5,-4 -11,-8 -18,-12 -7,-4 -16,-8 -27,-12 -11,-4 -23,-5 -38,-5 -16,0 -30,3 -43,10 -13,6 -24,16 -33,28 -9,12 -16,27 -22,45 -5,18 -8,38 -8,61 0,23 2,43 7,60 5,17 12,32 21,44 9,12 20,21 34,27 13,6 28,9 45,9 14,0 27,-2 37,-5 11,-3 20,-7 27,-12 8,-4 14,-8 18,-12 5,-3 9,-5 11,-5 1,0 2,0 3,1 1,1 2,2 2,3 1,2 1,4 1,6 0,3 0,6 0,10zm322 43c0,2 0,3 -1,4 -1,1 -2,2 -4,3 -2,1 -4,1 -7,2 -3,0 -7,1 -12,1 -5,0 -10,0 -13,-1 -3,0 -6,-1 -8,-2 -2,-1 -3,-2 -4,-3 -1,-1 -2,-3 -2,-5l-33 -87c-4,-12 -9,-22 -15,-30 -5,-8 -11,-15 -18,-21 -7,-5 -15,-9 -24,-12 -9,-3 -19,-4 -30,-4l-20 0 0 156c0,2 0,3 -1,4 -1,1 -2,2 -4,3 -2,1 -4,1 -7,2 -3,0 -7,1 -11,1 -4,0 -8,0 -11,-1 -3,0 -6,-1 -7,-2 -2,-1 -3,-2 -4,-3 -1,-1 -1,-2 -1,-4l0 -343c0,-1 0,-3 1,-4 1,-1 2,-2 4,-3 2,-1 4,-1 7,-2 3,0 7,-1 11,-1 5,0 8,0 11,1 3,0 5,1 7,2 2,1 3,2 4,3 1,1 1,2 1,4l0 146 20 0c11,0 21,-1 29,-4 8,-3 16,-7 22,-12 6,-5 12,-12 17,-20 5,-8 9,-18 13,-29l27 -78c1,-2 1,-3 2,-5 1,-2 2,-3 4,-4 2,-1 4,-2 8,-2 3,0 7,-1 13,-1 5,0 9,0 11,1 3,0 5,1 7,2 2,1 3,2 3,3 1,1 1,2 1,4 0,2 0,4 -1,7 -1,2 -2,5 -3,9l-28 74c-4,11 -8,21 -13,29 -4,8 -9,15 -14,21 -5,6 -11,11 -17,14 -6,4 -13,7 -20,9l0 1c9,3 16,7 23,11 7,4 13,9 19,15 6,6 11,13 16,22 5,9 9,19 14,31l34 85c2,5 3,8 3,10 0,2 1,4 1,5zm359 1c0,2 0,3 -1,4 -1,1 -2,2 -4,3 -2,1 -4,1 -7,2 -3,0 -7,1 -11,1 -5,0 -8,0 -11,-1 -3,0 -6,-1 -7,-2 -2,-1 -3,-2 -4,-3 -1,-1 -1,-2 -1,-4l0 -234c0,-6 0,-12 0,-18 0,-6 0,-12 1,-17l-1 0c-2,3 -3,5 -5,8 -2,3 -4,6 -6,9 -2,3 -4,6 -6,10 -2,3 -4,6 -6,10l-154 232c-1,2 -2,3 -3,4 -1,1 -3,2 -4,3 -2,1 -4,1 -6,1 -2,0 -5,0 -9,0 -4,0 -8,0 -10,-1 -3,0 -5,-1 -6,-2 -2,-1 -3,-2 -3,-3 -1,-1 -1,-2 -1,-4l0 -342c0,-1 0,-3 1,-4 1,-1 2,-2 4,-3 2,-1 4,-1 7,-2 3,0 7,-1 11,-1 5,0 8,0 11,1 3,0 5,1 7,2 2,1 3,2 4,3 1,1 1,2 1,4l0 235c0,5 0,10 0,16 0,6 0,11 -1,17l1 0c3,-5 6,-10 10,-17 4,-7 8,-13 13,-19l154 -232c1,-1 2,-2 3,-3 1,-1 3,-2 4,-2 2,-1 4,-1 6,-2 2,0 5,-1 9,-1 4,0 8,0 10,1 3,0 5,1 6,2 2,1 3,2 3,3 1,1 1,2 1,4l0 342zm344 -10c2,4 4,7 4,10 0,2 0,4 -2,6 -2,1 -4,2 -8,3 -4,0 -9,1 -15,1 -6,0 -10,0 -14,0 -3,0 -6,-1 -8,-2 -2,-1 -3,-2 -4,-3 -1,-1 -2,-2 -3,-4l-79 -142 -80 142c-1,2 -2,3 -3,4 -1,1 -3,2 -5,3 -2,1 -5,1 -8,1 -3,0 -8,0 -13,0 -6,0 -11,0 -14,-1 -3,0 -6,-1 -7,-3 -1,-1 -2,-3 -1,-6 0,-2 2,-6 4,-10l97 -164 -93 -159c-2,-4 -4,-7 -4,-10 -1,-2 0,-4 1,-6 2,-1 4,-2 8,-3 4,0 9,-1 15,-1 6,0 10,0 14,0 3,0 6,1 8,1 2,1 3,2 4,3 1,1 2,3 3,4l77 133 76 -133c1,-2 2,-3 3,-4 1,-1 2,-2 4,-3 2,-1 4,-1 7,-1 3,0 7,0 13,0 6,0 10,0 14,1 4,0 6,1 8,3 2,1 2,3 2,6 0,3 -2,6 -4,10l-93 157 96 165zm472 10c0,2 0,3 -1,4 -1,1 -2,2 -4,3 -2,1 -4,1 -7,2 -3,0 -7,1 -11,1 -4,0 -8,0 -11,-1 -3,0 -6,-1 -7,-2 -2,-1 -3,-2 -4,-3 -1,-1 -1,-2 -1,-4l0 -309 -161 0 0 309c0,2 0,3 -1,4 -1,1 -2,2 -4,3 -2,1 -4,1 -7,2 -3,0 -7,1 -11,1 -5,0 -8,0 -11,-1 -3,0 -5,-1 -7,-2 -2,-1 -3,-2 -4,-3 -1,-1 -1,-2 -1,-4l0 -331c0,-6 2,-11 5,-14 3,-3 7,-5 12,-5l223 0c5,0 9,2 12,5 3,3 4,8 4,14l0 331zm366 0c0,2 0,3 -1,4 -1,1 -2,2 -4,3 -2,1 -4,1 -7,2 -3,0 -7,1 -11,1 -5,0 -8,0 -11,-1 -3,0 -5,-1 -7,-2 -2,-1 -3,-2 -4,-3 -1,-1 -1,-2 -1,-4l0 -309 -100 0c-5,43 -10,80 -15,112 -5,32 -10,60 -16,84 -5,24 -12,44 -18,59 -7,16 -14,29 -23,38 -9,10 -18,16 -29,20 -11,4 -23,6 -37,6 -2,0 -3,0 -5,-1 -1,-1 -3,-2 -4,-4 -1,-2 -2,-4 -2,-6 0,-3 -1,-6 -1,-9 0,-5 0,-8 1,-11 0,-3 1,-5 2,-7 1,-2 2,-3 3,-4 1,-1 3,-1 4,-1 7,0 13,-1 19,-4 6,-3 12,-8 17,-16 6,-8 11,-18 16,-32 5,-14 10,-32 15,-54 5,-22 10,-49 14,-80 5,-31 9,-68 13,-111 1,-8 3,-13 6,-16 3,-3 7,-5 12,-5l158 0c5,0 9,2 12,5 3,3 4,8 4,14l0 331zm384 -10c1,4 2,7 2,10 0,2 -1,4 -2,6 -2,1 -4,2 -7,2 -3,0 -8,1 -14,1 -6,0 -10,0 -14,0 -3,0 -6,-1 -8,-1 -2,-1 -3,-2 -4,-3 -1,-1 -2,-2 -2,-4l-31 -87 -148 0 -29 86c-1,2 -1,3 -2,4 -1,1 -2,2 -4,3 -2,1 -4,1 -7,2 -3,0 -7,1 -13,1 -5,0 -10,0 -13,-1 -3,0 -6,-1 -7,-3 -1,-1 -2,-3 -2,-6 0,-3 1,-6 2,-10l120 -331c1,-2 2,-4 3,-5 1,-1 3,-2 5,-3 2,-1 5,-1 9,-2 4,0 8,0 14,0 6,0 11,0 15,0 4,0 7,1 9,2 2,1 4,2 6,3 1,1 2,3 3,5l120 332zm-154 -293l0 0 -61 178 124 0 -62 -178zm401 -27c0,3 0,6 -1,9 0,3 -1,5 -2,6 -1,2 -2,3 -3,3 -1,1 -3,1 -4,1l-100 0 0 310c0,2 0,3 -1,4 -1,1 -2,2 -4,3 -2,1 -4,1 -7,2 -3,0 -7,1 -11,1 -4,0 -8,0 -11,-1 -3,0 -6,-1 -7,-2 -2,-1 -3,-2 -4,-3 -1,-1 -1,-2 -1,-4l0 -310 -100 0c-1,0 -3,0 -4,-1 -1,-1 -2,-2 -3,-3 -1,-2 -1,-4 -2,-6 0,-3 -1,-6 -1,-9 0,-3 0,-7 1,-9 0,-3 1,-5 2,-6 1,-2 2,-3 3,-4 1,-1 3,-1 4,-1l248 0c1,0 3,0 4,1 1,1 2,2 3,4 1,2 1,4 2,6 0,3 1,6 1,9z"/>
   <path class="fil0" d="M8978 2008c0,14 -2,28 -7,41 -5,13 -12,25 -22,35 -10,10 -24,19 -41,25 -17,6 -41,10 -71,10l-79 0c-2,0 -4,0 -7,-1 -2,-1 -4,-2 -6,-3 -2,-2 -3,-4 -4,-6 -1,-2 -2,-5 -2,-9l0 -331c0,-1 0,-3 1,-4 1,-1 2,-2 4,-3 2,-1 4,-1 7,-2 3,0 7,-1 11,-1 5,0 8,0 11,1 3,0 5,1 7,2 2,1 3,2 4,3 1,1 1,2 1,4l0 134 54 0c26,0 47,2 62,7 16,4 29,11 40,20 11,9 19,20 25,33 6,13 9,28 9,46zm-49 4c0,-11 -2,-21 -5,-30 -3,-9 -8,-16 -15,-22 -7,-6 -15,-11 -25,-14 -10,-3 -26,-5 -46,-5l-50 0 0 138 53 0c22,0 38,-2 49,-7 11,-4 19,-10 24,-17 6,-7 10,-14 12,-22 2,-8 3,-15 3,-22zm332 87c0,3 0,6 -1,9 0,2 -1,5 -2,6 -1,2 -2,3 -3,4 -1,1 -3,1 -4,1l-171 0c-4,0 -8,-1 -12,-4 -4,-3 -6,-8 -6,-15l0 -318c0,-7 2,-12 6,-15 4,-3 8,-4 12,-4l169 0c2,0 3,0 4,1 1,1 2,2 3,4 1,2 1,4 2,6 0,2 1,6 1,9 0,3 0,6 -1,9 0,2 -1,5 -2,6 -1,2 -2,3 -3,3 -1,1 -3,1 -4,1l-140 0 0 112 120 0c2,0 3,0 4,1 1,1 2,2 3,3 1,2 1,3 2,6 0,3 1,6 1,9 0,3 0,6 -1,9 0,2 -1,4 -2,6 -1,2 -2,3 -3,3 -1,1 -3,1 -4,1l-120 0 0 128 142 0c2,0 3,0 4,1 1,1 2,2 3,3 1,2 2,4 2,6 0,2 1,6 1,9zm334 -83c0,11 -1,22 -4,31 -3,10 -7,18 -12,26 -5,8 -11,14 -19,20 -7,6 -15,10 -25,14 -9,4 -19,7 -29,9 -10,2 -22,3 -36,3l-93 0c-4,0 -8,-1 -12,-4 -4,-3 -6,-8 -6,-15l0 -318c0,-7 2,-12 6,-15 4,-3 8,-4 12,-4l81 0c21,0 39,2 52,6 14,4 25,10 34,18 9,8 16,17 21,28 5,11 7,24 7,38 0,8 -1,17 -3,24 -2,8 -5,15 -9,21 -4,7 -9,12 -15,18 -6,5 -13,9 -21,13 10,2 19,5 27,10 8,5 16,11 22,19 6,8 11,16 15,26 4,10 6,21 6,33zm-71 -160c0,-9 -1,-16 -4,-24 -2,-7 -6,-13 -11,-18 -5,-5 -12,-9 -20,-11 -8,-3 -19,-4 -33,-4l-49 0 0 116 54 0c12,0 22,-2 30,-5 8,-3 14,-8 19,-13 5,-5 9,-12 11,-19 2,-7 3,-15 3,-22zm21 163c0,-11 -2,-20 -5,-28 -3,-8 -8,-15 -15,-20 -7,-6 -15,-10 -25,-13 -10,-3 -22,-4 -37,-4l-57 0 0 126 69 0c11,0 20,-1 28,-4 8,-3 15,-6 21,-11 6,-5 11,-11 14,-19 3,-8 5,-16 5,-26z"/>
  </g>
 </g>
</svg>
