<?xml version="1.0" encoding="UTF-8"?>
<!DOCTYPE svg PUBLIC "-//W3C//DTD SVG 1.1//EN" "http://www.w3.org/Graphics/SVG/1.1/DTD/svg11.dtd">
<!-- Creator: CorelDRAW X6 -->
<svg xmlns="http://www.w3.org/2000/svg" xml:space="preserve" width="97mm" height="14mm" version="1.1" style="shape-rendering:geometricPrecision; text-rendering:geometricPrecision; image-rendering:optimizeQuality; fill-rule:evenodd; clip-rule:evenodd"
viewBox="0 0 9700 1400"
 xmlns:xlink="http://www.w3.org/1999/xlink">
 <defs>
  <style type="text/css">
   <![CDATA[
    .fil0 {fill:#C68625;fill-rule:nonzero}
   ]]>
  </style>
 </defs>
 <g id="Слой_x0020_1">
  <metadata id="CorelCorpID_0Corel-Layer"/>
  <g id="_619054896">
   <path class="fil0" d="M1089 601c5,0 11,-4 11,-12l0 -37c0,-268 0,-317 -4,-374 -4,-60 -18,-88 -76,-101 -14,-4 -44,-5 -69,-5 -19,0 -30,-4 -30,-16 0,-12 12,-16 37,-16 95,0 206,5 254,5 42,0 154,-5 222,-5 25,0 37,4 37,16 0,12 -11,16 -32,16 -14,0 -30,2 -51,5 -48,9 -62,39 -65,101 -4,56 -4,106 -4,374l0 310c0,162 0,302 9,377 5,49 16,88 69,95 25,4 64,7 90,7 19,0 28,5 28,14 0,12 -14,18 -35,18 -115,0 -226,-5 -275,-5 -41,0 -152,5 -220,5 -25,0 -37,-5 -37,-18 0,-9 7,-14 28,-14 26,0 48,-4 63,-7 35,-7 44,-46 51,-97 9,-74 9,-213 9,-376l0 -155c0,-7 -5,-11 -11,-11l-674 0c-5,0 -11,2 -11,11l0 155c0,162 0,302 9,377 5,49 16,88 69,95 25,4 64,7 90,7 19,0 28,5 28,14 0,12 -14,18 -35,18 -115,0 -226,-5 -275,-5 -41,0 -152,5 -222,5 -23,0 -35,-5 -35,-18 0,-9 7,-14 28,-14 26,0 48,-4 64,-7 35,-7 44,-46 51,-97 9,-74 9,-213 9,-376l0 -310c0,-268 0,-317 -4,-374 -4,-60 -18,-88 -76,-101 -14,-4 -44,-5 -69,-5 -19,0 -30,-4 -30,-16 0,-12 12,-16 37,-16 95,0 206,5 254,5 42,0 153,-5 222,-5 25,0 37,4 37,16 0,12 -11,16 -32,16 -14,0 -30,2 -51,5 -48,9 -62,39 -65,101 -4,56 -4,106 -4,374l0 37c0,9 5,12 11,12l674 0zm943 -49l0 0c0,-268 0,-317 -4,-374 -4,-60 -21,-90 -60,-99 -19,-5 -42,-7 -64,-7 -18,0 -28,-4 -28,-18 0,-11 14,-14 42,-14 67,0 178,5 229,5 44,0 148,-5 215,-5 23,0 37,4 37,14 0,14 -11,18 -28,18 -18,0 -32,2 -53,5 -48,9 -62,39 -65,101 -4,56 -4,106 -4,374l0 310c0,171 0,310 7,386 5,48 18,79 71,86 25,4 63,7 90,7 19,0 28,5 28,14 0,12 -14,18 -34,18 -116,0 -228,-5 -275,-5 -41,0 -152,5 -222,5 -23,0 -35,-5 -35,-18 0,-9 7,-14 28,-14 26,0 48,-4 63,-7 35,-7 46,-37 51,-88 9,-74 9,-213 9,-385l0 -310zm818 801l0 0c-28,-12 -33,-21 -33,-60 0,-97 7,-203 9,-231 2,-26 7,-46 21,-46 16,0 18,16 18,30 0,23 7,60 16,90 39,131 143,178 252,178 159,0 236,-108 236,-201 0,-86 -26,-168 -173,-282l-81 -64c-194,-152 -261,-275 -261,-418 0,-194 162,-333 407,-333 115,0 189,18 235,30 16,4 25,9 25,21 0,23 -7,74 -7,212 0,39 -5,53 -19,53 -12,0 -18,-11 -18,-32 0,-16 -9,-71 -46,-116 -26,-34 -78,-86 -192,-86 -131,0 -210,76 -210,182 0,81 41,143 187,254l49 37c213,161 289,282 289,450 0,102 -39,224 -166,307 -88,56 -187,72 -281,72 -102,0 -182,-12 -258,-46zm1508 -1214l0 0 -263 7c-102,4 -145,12 -171,51 -18,26 -26,48 -30,62 -4,14 -9,21 -19,21 -12,0 -16,-9 -16,-28 0,-28 34,-189 37,-203 5,-23 11,-34 21,-34 14,0 32,18 76,21 51,5 118,9 176,9l699 0c56,0 95,-5 122,-9 26,-5 41,-9 48,-9 12,0 14,11 14,37 0,37 -5,159 -5,205 -2,18 -5,28 -16,28 -14,0 -18,-9 -19,-35l-2 -19c-4,-46 -51,-95 -208,-99l-222 -5 0 723c0,162 0,302 9,377 5,49 16,88 69,95 25,4 64,7 90,7 19,0 28,5 28,14 0,12 -14,18 -34,18 -116,0 -228,-5 -277,-5 -41,0 -152,5 -222,5 -23,0 -35,-5 -35,-18 0,-9 7,-14 28,-14 26,0 48,-4 64,-7 35,-7 46,-46 51,-97 9,-74 9,-213 9,-376l0 -723zm945 568l0 0c0,-302 199,-692 729,-692 439,0 713,256 713,660 0,404 -282,723 -730,723 -506,0 -711,-379 -711,-691zm1194 34l0 0c0,-395 -228,-640 -517,-640 -203,0 -434,113 -434,552 0,367 203,658 542,658 124,0 409,-60 409,-570zm717 -189l0 0c0,-268 0,-317 -4,-374 -4,-60 -18,-88 -76,-101 -14,-4 -44,-5 -69,-5 -19,0 -30,-4 -30,-16 0,-12 12,-16 39,-16 93,0 205,5 242,5 60,0 194,-5 249,-5 111,0 229,11 325,76 49,34 120,123 120,242 0,131 -55,250 -233,395 157,198 279,355 383,464 99,102 171,115 198,120 19,4 35,5 49,5 14,0 21,5 21,14 0,14 -12,18 -34,18l-168 0c-99,0 -143,-9 -189,-34 -76,-41 -143,-123 -242,-259 -71,-97 -152,-217 -175,-243 -9,-11 -19,-12 -32,-12l-153 -4c-9,0 -14,4 -14,14l0 25c0,164 0,303 9,377 5,51 16,90 69,97 27,4 65,7 86,7 14,0 21,5 21,14 0,12 -12,18 -35,18 -102,0 -233,-5 -259,-5 -34,0 -145,5 -215,5 -23,0 -35,-5 -35,-18 0,-9 7,-14 28,-14 26,0 48,-4 63,-7 35,-7 44,-46 51,-97 9,-74 9,-213 9,-376l0 -310zm208 139l0 0c0,19 4,26 16,32 37,12 90,18 134,18 71,0 93,-7 125,-30 53,-39 104,-120 104,-265 0,-250 -166,-323 -270,-323 -44,0 -76,2 -94,7 -12,4 -16,11 -16,25l0 536zm1488 226l0 0c0,-95 -18,-134 -41,-185 -12,-28 -249,-416 -310,-508 -44,-65 -88,-109 -122,-129 -23,-12 -53,-23 -74,-23 -14,0 -26,-4 -26,-16 0,-11 12,-16 34,-16 32,0 164,5 222,5 37,0 109,-5 189,-5 18,0 26,5 26,16 0,11 -12,12 -39,19 -16,4 -25,18 -25,32 0,14 9,35 21,60 25,53 272,478 300,527 18,-42 240,-430 265,-485 18,-39 25,-69 25,-92 0,-18 -7,-37 -37,-44 -16,-4 -32,-7 -32,-18 0,-12 9,-16 30,-16 58,0 115,5 166,5 39,0 155,-5 189,-5 19,0 32,4 32,14 0,12 -14,18 -33,18 -18,0 -51,7 -78,21 -37,18 -56,39 -95,86 -58,71 -305,485 -337,561 -26,64 -26,118 -26,176l0 145c0,28 0,102 5,176 4,51 19,90 72,97 25,4 64,7 88,7 19,0 28,5 28,14 0,12 -14,18 -37,18 -111,0 -222,-5 -270,-5 -44,0 -155,5 -220,5 -25,0 -39,-4 -39,-18 0,-9 9,-14 28,-14 25,0 46,-4 62,-7 35,-7 51,-46 55,-97 5,-74 5,-148 5,-176l0 -145z"/>
  </g>
 </g>
</svg>
